<?xml version="1.0" encoding="utf-8"?>
<!-- Generator: Adobe Illustrator 18.1.1, SVG Export Plug-In . SVG Version: 6.00 Build 0)  -->
<svg version="1.1" xmlns="http://www.w3.org/2000/svg" xmlns:xlink="http://www.w3.org/1999/xlink" x="0px" y="0px"
	 viewBox="0 0 229.202 76.919" enable-background="new 0 0 229.202 76.919" xml:space="preserve">
<g id="Layer_2">
</g>
<g id="Layer_1">
	<g>
		<polygon fill="#245085" points="0,76.924 6.566,65.599 194.629,72.99 191.728,76.924 		"/>
		<path fill="#D8DCE8" d="M214.474,48.635c2.637-5.262,18.8-8.871,13.761-38.059c-1.052-6.093-2.268-8.9-3.558-9.48
			C223.669,0.642,30.095,1.044,30.095,1.044L7.888,73.252h192.96C200.848,73.252,211.837,53.898,214.474,48.635z"/>
		<g>
			<defs>
				<path id="SVGID_3_" d="M214.474,48.635c2.637-5.262,18.8-8.871,13.761-38.059c-1.052-6.093-2.268-8.9-3.558-9.48
					C223.669,0.642,30.095,1.044,30.095,1.044L7.888,73.252h192.96C200.848,73.252,211.837,53.898,214.474,48.635z"/>
			</defs>
			<clipPath id="SVGID_1_">
				<use xlink:href="#SVGID_3_"  overflow="visible"/>
			</clipPath>
			<rect x="-118.277" y="20.157" clip-path="url(#SVGID_1_)" fill="#BDCCD4" width="352.886" height="26.834"/>
		</g>
		<path fill="#FFFFFF" d="M20.038,48.635c2.637-5.262,18.8-8.871,13.761-38.059S19.952,27.6,17.315,32.863
			S4.396,53.028,4.396,53.028l3.492,20.224C7.888,73.252,17.401,53.898,20.038,48.635z"/>
		<polygon fill="#2485AE" points="0,73.252 12.333,51.126 12.967,54.797 0,76.924 		"/>
	</g>
</g>
<g id="Layer_3" display="none">
</g>
</svg>
